<svg id="_8679697_lightbulb_flash_idea_light_bulb_icon" data-name="8679697_lightbulb_flash_idea_light_bulb_icon" xmlns="http://www.w3.org/2000/svg" width="34.76" height="34.76" viewBox="0 0 34.76 34.76">
  <path id="路径_433" data-name="路径 433" d="M0,0H34.76V34.76H0Z" fill="none"/>
  <path id="路径_434" data-name="路径 434" d="M13.99,26.2h6.78c.221-1.818,1.246-3.318,2.91-4.956.189-.185,1.392-1.311,1.534-1.472a8.462,8.462,0,0,0-1-12.318,10.827,10.827,0,0,0-13.659,0A8.462,8.462,0,0,0,9.543,19.767c.144.162,1.35,1.29,1.535,1.473C12.744,22.88,13.769,24.38,13.99,26.2Zm6.735,3.025h-6.69v1.512h6.69ZM6.934,21.661A11.283,11.283,0,0,1,8.274,5.235a14.436,14.436,0,0,1,18.214,0,11.283,11.283,0,0,1,1.335,16.426c-1.037,1.168-3.753,3.022-3.753,5.29v3.781a3.2,3.2,0,0,1-3.345,3.025h-6.69a3.2,3.2,0,0,1-3.345-3.025V26.954c0-2.269-2.718-4.123-3.756-5.293ZM19.053,14.1h4.181l-7.526,9.074V17.13H11.526l7.526-9.08v6.057Z" transform="translate(0 0)" fill="#a0a5b9"/>
</svg>
