<svg xmlns="http://www.w3.org/2000/svg" width="34.76" height="34.76" viewBox="0 0 34.76 34.76">
  <path id="_1041639_light_saturation_icon" data-name="1041639_light_saturation_icon" d="M32.679,19.461A2.081,2.081,0,1,1,34.76,17.38,1.992,1.992,0,0,1,32.679,19.461Zm-6,10.281a2.077,2.077,0,1,1,2.937,0A2.232,2.232,0,0,1,26.682,29.742Zm0-21.664a2,2,0,0,1,0-2.937,2,2,0,0,1,2.937,0,2,2,0,0,1,0,2.937A2,2,0,0,1,26.682,8.078ZM17.5,27.294A9.792,9.792,0,1,1,27.294,17.5,9.82,9.82,0,0,1,17.5,27.294Zm-7.221-9.3A7.334,7.334,0,0,0,17.5,24.846a7.334,7.334,0,0,0,7.221-6.854Zm7.1-13.831A2.145,2.145,0,0,1,15.3,2.081a2.081,2.081,0,1,1,4.161,0A2.063,2.063,0,0,1,17.38,4.161ZM5.141,8.078a2,2,0,0,1,0-2.937,2,2,0,0,1,2.937,0,2,2,0,0,1,0,2.937A2.1,2.1,0,0,1,5.141,8.078ZM2.081,19.461a2.081,2.081,0,1,1,0-4.161A2.145,2.145,0,0,1,4.161,17.38,1.992,1.992,0,0,1,2.081,19.461Zm6,7.221a2,2,0,0,1,0,2.937,2.1,2.1,0,0,1-2.937,0,2,2,0,0,1,0-2.937A2.232,2.232,0,0,1,8.078,26.682Zm9.3,3.917A2.081,2.081,0,1,1,15.3,32.679,2.145,2.145,0,0,1,17.38,30.6Z" fill="#a0a5b9" fill-rule="evenodd"/>
</svg>
