<svg xmlns="http://www.w3.org/2000/svg" width="32.093" height="34.76" viewBox="0 0 32.093 34.76">
  <g id="Outdoor_Plant" transform="translate(-94.597 -81.183)">
    <path id="路径_435" data-name="路径 435" d="M172.381,161.082a16.88,16.88,0,0,0-8.686-2.665V153.1a9.119,9.119,0,0,0,8.724-9.1v-.063a.149.149,0,0,0-.149-.149h-.063a9.124,9.124,0,0,0-8.959,7.464,9.119,9.119,0,0,0-3.433-5.59,8.121,8.121,0,1,0-4.646,2.661A9.119,9.119,0,0,0,162.8,153.1v5.315a16.881,16.881,0,0,0-8.686,2.665l.484.753a16.044,16.044,0,0,1,17.3,0,.447.447,0,0,0,.484-.753Zm-18.69-13.515a7.234,7.234,0,1,1,5.384-2.414,9.053,9.053,0,0,0-4.787-1.363h-.063a.149.149,0,0,0-.149.149V144a9.059,9.059,0,0,0,.693,3.484A7.248,7.248,0,0,1,153.691,147.566Z" transform="translate(-45.896 -45.962)" fill="#a0a5b9"/>
    <path id="路径_436" data-name="路径 436" d="M133.634,120.853a.447.447,0,0,0,.633-.633l-1.344-1.345a.447.447,0,1,0-.633.633Z" transform="translate(-33.827 -33.827)" fill="#a0a5b9"/>
    <path id="路径_437" data-name="路径 437" d="M300.447,120.984a.446.446,0,0,0,.316-.131l1.344-1.345a.447.447,0,1,0-.633-.633l-1.344,1.345a.447.447,0,0,0,.316.764Z" transform="translate(-184.982 -33.827)" fill="#a0a5b9"/>
    <path id="路径_438" data-name="路径 438" d="M133.634,286.717l-1.344,1.344a.447.447,0,0,0,.633.633l1.344-1.344a.447.447,0,1,0-.633-.633Z" transform="translate(-33.827 -184.981)" fill="#a0a5b9"/>
    <path id="路径_439" data-name="路径 439" d="M223.288,83.979a.447.447,0,0,0,.447-.447v-1.9a.447.447,0,1,0-.895,0v1.9A.447.447,0,0,0,223.288,83.979Z" transform="translate(-115.494)" fill="#a0a5b9"/>
    <path id="路径_440" data-name="路径 440" d="M223.736,318.993a.447.447,0,1,0-.895,0v1.9a.447.447,0,1,0,.895,0Z" transform="translate(-115.494 -213.764)" fill="#a0a5b9"/>
    <path id="路径_441" data-name="路径 441" d="M96.946,209.427h-1.9a.447.447,0,1,0,0,.895h1.9a.447.447,0,1,0,0-.895Z" transform="translate(0 -115.494)" fill="#a0a5b9"/>
    <path id="路径_442" data-name="路径 442" d="M332.407,210.322h1.9a.447.447,0,1,0,0-.895h-1.9a.447.447,0,1,0,0,.895Z" transform="translate(-213.765 -115.494)" fill="#a0a5b9"/>
  </g>
</svg>
