<svg id="_9045031_soil_moisture_field_icon" data-name="9045031_soil_moisture_field_icon" xmlns="http://www.w3.org/2000/svg" width="34.76" height="34.76" viewBox="0 0 34.76 34.76">
  <path id="路径_443" data-name="路径 443" d="M24.974,31.207a5.651,5.651,0,0,1-5.025-8.777l3.928-5.846a1.322,1.322,0,0,1,2.194,0l3.856,5.732a5.966,5.966,0,0,1,1.021,3.189A5.849,5.849,0,0,1,24.974,31.207Zm0-12.362L21.786,23.59a3.485,3.485,0,0,0,3.189,5.445,3.678,3.678,0,0,0,3.8-3.529,3.732,3.732,0,0,0-.684-2.028Z" transform="translate(1.639 1.38)" fill="#a0a5b9"/>
  <path id="路径_444" data-name="路径 444" d="M11.776,17.207V11.776h1.086a4.35,4.35,0,0,0,4.345-4.345V4.172H13.949a4.321,4.321,0,0,0-2.984,1.2A6.521,6.521,0,0,0,5.259,2H2V5.259a6.525,6.525,0,0,0,6.518,6.518H9.6v5.431H2V19.38H17.207V17.207ZM13.949,6.345h1.086V7.431A2.175,2.175,0,0,1,12.863,9.6H11.776V8.517a2.175,2.175,0,0,1,2.173-2.173ZM8.517,9.6A4.35,4.35,0,0,1,4.173,5.259V4.172H5.259A4.35,4.35,0,0,1,9.6,8.517V9.6Z" transform="translate(0.173 0.173)" fill="#a0a5b9"/>
  <rect id="矩形_223" data-name="矩形 223" width="15.208" height="2.172" transform="translate(2.172 22.811)" fill="#a0a5b9"/>
  <rect id="矩形_224" data-name="矩形 224" width="15.208" height="2.172" transform="translate(2.172 28.243)" fill="#a0a5b9"/>
  <rect id="_Transparent_Rectangle_" data-name="&lt;Transparent Rectangle&gt;" width="34.76" height="34.76" fill="none"/>
</svg>
