<svg xmlns="http://www.w3.org/2000/svg" width="19.588" height="34.761" viewBox="0 0 19.588 34.761">
  <path id="_8665983_temperature_three_quarters_icon" data-name="8665983_temperature_three_quarters_icon" d="M26.882,21.961V10.882a1.088,1.088,0,1,0-2.176,0V21.961a3.265,3.265,0,1,0,2.176,0Zm6.529-3.02V7.617A7.6,7.6,0,0,0,25.855,0a7.708,7.708,0,0,0-7.679,7.617V18.942a9.794,9.794,0,1,0,15.235,0ZM25.794,30.47a5.389,5.389,0,0,1-3.265-9.716V7.675a3.265,3.265,0,1,1,6.529,0V20.754a5.389,5.389,0,0,1-3.265,9.716Z" transform="translate(-16)" fill="#a0a5b9"/>
</svg>
