<svg xmlns="http://www.w3.org/2000/svg" width="27.494" height="24.874" viewBox="0 0 27.494 24.874">
  <g id="Group_6889" data-name="Group 6889" transform="translate(17725 6911.346)">
    <path id="Path_29727" data-name="Path 29727" d="M-378.366,324.8l-3.443-4.55a1.642,1.642,0,0,1-1.737-.142c-.076.069-.152.131-.223.2q-2.219,2.16-4.44,4.317a.334.334,0,0,0-.105.419,1.573,1.573,0,0,1-.073,1.277,1.573,1.573,0,0,1-1,.8,1.591,1.591,0,0,1-1.252-.182,1.591,1.591,0,0,1-.723-1.038,1.577,1.577,0,0,1,.275-1.251,1.577,1.577,0,0,1,1.112-.634,1.861,1.861,0,0,1,.718.1.362.362,0,0,0,.427-.086c1.532-1.5,3.073-3,4.605-4.5a.437.437,0,0,0,.091-.335,1.612,1.612,0,0,1,.774-1.727,1.581,1.581,0,0,1,1.8.167,1.6,1.6,0,0,1,.447,1.837.394.394,0,0,0,.045.318q1.618,2.158,3.259,4.3a.392.392,0,0,0,.32.114,1.7,1.7,0,0,1,1.106.114.241.241,0,0,0,.18.047.241.241,0,0,0,.16-.1q2.118-2.174,4.25-4.335c.143-.145.1-.253.049-.4a1.581,1.581,0,0,1,.066-1.263,1.581,1.581,0,0,1,.971-.81,1.584,1.584,0,0,1,1.27.162,1.583,1.583,0,0,1,.735,1.049,1.51,1.51,0,0,1-.5,1.5,1.484,1.484,0,0,1-1.57.309.35.35,0,0,0-.442.1q-2.105,2.165-4.225,4.316a.339.339,0,0,0-.115.393,1.569,1.569,0,0,1-.7,1.827,1.59,1.59,0,0,1-1.923-.237,1.575,1.575,0,0,1-.252-1.94C-378.409,324.89-378.392,324.853-378.366,324.8Z" transform="translate(-17331.342 -7228.06)" fill="#e3e4ea" stroke="#e3e4ea" stroke-width="1"/>
    <g id="Group_6888" data-name="Group 6888" transform="translate(-17723.627 -6904.343)">
      <path id="Rectangle_116" data-name="Rectangle 116" d="M.687,0h3.78a.687.687,0,0,1,.687.687V15.122H0V.687A.687.687,0,0,1,.687,0Z" transform="translate(19.59 0)" fill="#a2a5b7"/>
      <path id="Rectangle_118" data-name="Rectangle 118" d="M.687,0h3.78a.687.687,0,0,1,.687.687V8.936H0V.687A.687.687,0,0,1,.687,0Z" transform="translate(13.06 6.186)" fill="#e3e4ea"/>
      <path id="Rectangle_119" data-name="Rectangle 119" d="M.687,0h3.78a.687.687,0,0,1,.687.687v6.53H0V.687A.687.687,0,0,1,.687,0Z" transform="translate(0 7.905)" fill="#e3e4ea"/>
      <path id="Rectangle_117" data-name="Rectangle 117" d="M.687,0h3.78a.687.687,0,0,1,.687.687V12.029H0V.687A.687.687,0,0,1,.687,0Z" transform="translate(6.53 3.093)" fill="#a2a5b7"/>
    </g>
    <rect id="Rectangle_120" data-name="Rectangle 120" width="27.494" height="1.375" transform="translate(-17725 -6887.847)" fill="#a2a5b7"/>
  </g>
</svg>
