<svg xmlns="http://www.w3.org/2000/svg" width="14.332" height="10.403" viewBox="0 0 14.332 10.403">
  <g id="arrows-exchange" transform="translate(-5.989 -9.281)">
    <path id="路径_875" data-name="路径 875" d="M6.884,19.476A.895.895,0,0,0,6.41,21.13l2.4,2.405a.9.9,0,1,0,1.265-1.267l-1-1h6.756a.895.895,0,1,0,0-1.79H6.884Z" transform="translate(0 -4.113)" fill="#7f8297"/>
    <path id="路径_876" data-name="路径 876" d="M21.854,13.6a.895.895,0,0,0,.475-1.654L19.924,9.543a.9.9,0,0,0-1.265,1.267l1,1H12.9a.895.895,0,0,0,0,1.79h8.949Z" transform="translate(-2.429 0)" fill="#7f8297"/>
  </g>
</svg>
