<svg id="calendar2-week-fill" xmlns="http://www.w3.org/2000/svg" width="15.044" height="15.044" viewBox="0 0 15.044 15.044">
  <path id="路径_872" data-name="路径 872" d="M13.164,3.19H1.881a.94.94,0,0,0-.94.94V14.473a.94.94,0,0,0,.94.94H13.164a.94.94,0,0,0,.94-.94V4.131A.94.94,0,0,0,13.164,3.19ZM1.881,2.25A1.881,1.881,0,0,0,0,4.131V14.473a1.881,1.881,0,0,0,1.881,1.881H13.164a1.881,1.881,0,0,0,1.881-1.881V4.131A1.881,1.881,0,0,0,13.164,2.25Z" transform="translate(0 -1.31)" fill="#7f8297" fill-rule="evenodd"/>
  <path id="路径_873" data-name="路径 873" d="M7.22,0a.47.47,0,0,1,.47.47V.94a.47.47,0,0,1-.94,0V.47A.47.47,0,0,1,7.22,0Zm8.462,0a.47.47,0,0,1,.47.47V.94a.47.47,0,0,1-.94,0V.47A.47.47,0,0,1,15.682,0Z" transform="translate(-3.929 0)" fill="#7f8297" fill-rule="evenodd"/>
  <path id="路径_874" data-name="路径 874" d="M5.625,8.345a.47.47,0,0,1,.47-.47h9.4a.47.47,0,0,1,.47.47v.94a.47.47,0,0,1-.47.47H6.1a.47.47,0,0,1-.47-.47Zm7.992,3.291a.47.47,0,0,1,.47-.47h.94a.47.47,0,0,1,.47.47v.94a.47.47,0,0,1-.47.47h-.94a.47.47,0,0,1-.47-.47Zm-2.821,0a.47.47,0,0,1,.47-.47h.94a.47.47,0,0,1,.47.47v.94a.47.47,0,0,1-.47.47h-.94a.47.47,0,0,1-.47-.47ZM6.1,14.457a.47.47,0,0,1,.47-.47h.94a.47.47,0,0,1,.47.47v.94a.47.47,0,0,1-.47.47h-.94a.47.47,0,0,1-.47-.47Zm2.821,0a.47.47,0,0,1,.47-.47h.94a.47.47,0,0,1,.47.47v.94a.47.47,0,0,1-.47.47h-.94a.47.47,0,0,1-.47-.47Z" transform="translate(-3.274 -4.584)" fill="#7f8297"/>
</svg>
