<svg id="up-arrow_3_" data-name="up-arrow (3)" xmlns="http://www.w3.org/2000/svg" width="31.653" height="31.653" viewBox="0 0 31.653 31.653">
  <g id="组_2156" data-name="组 2156" transform="translate(0 0)">
    <g id="组_2155" data-name="组 2155">
      <path id="路径_1859" data-name="路径 1859" d="M15.826,0A15.826,15.826,0,1,0,31.653,15.826,15.844,15.844,0,0,0,15.826,0Zm0,29.2A13.375,13.375,0,1,1,29.2,15.826,13.39,13.39,0,0,1,15.826,29.2Z" fill="#181c32"/>
    </g>
  </g>
  <g id="组_2158" data-name="组 2158" transform="translate(8.544 11.032)">
    <g id="组_2157" data-name="组 2157">
      <path id="路径_1860" data-name="路径 1860" d="M152.48,184.933l-6.129-6.13a1.225,1.225,0,0,0-1.729,0l-6.129,6.13a1.226,1.226,0,0,0,1.729,1.728l5.259-5.259,5.271,5.259a1.222,1.222,0,1,0,1.729-1.729Z" transform="translate(-138.197 -178.446)" fill="#181c32"/>
    </g>
  </g>
</svg>
