<svg xmlns="http://www.w3.org/2000/svg" width="28.001" height="19.6" viewBox="0 0 28.001 19.6">
  <g id="bx-cloud-download" transform="translate(-3.006 -7.5)">
    <path id="路径_844" data-name="路径 844" d="M26.728,16.057A9.814,9.814,0,0,0,17.006,7.5a9.437,9.437,0,0,0-8.74,5.81,7.346,7.346,0,0,0-5.26,6.79,7.007,7.007,0,0,0,7,7h1.4V24.3h-1.4a4.205,4.205,0,0,1-4.2-4.2,4.557,4.557,0,0,1,3.743-4.222l.813-.143.269-.781A6.624,6.624,0,0,1,17.006,10.3a7.007,7.007,0,0,1,7,7v1.4h1.4a2.8,2.8,0,0,1,0,5.6h-2.8v2.8h2.8a5.6,5.6,0,0,0,1.322-11.043Z" fill="#fff"/>
    <path id="路径_845" data-name="路径 845" d="M19.006,20.6V15h-2.8v5.6h-4.2l5.6,7,5.6-7Z" transform="translate(-0.6 -0.5)" fill="#fff"/>
  </g>
</svg>
