<svg xmlns="http://www.w3.org/2000/svg" width="28" height="24.192" viewBox="0 0 28 24.192">
  <g id="gallery" transform="translate(0 -26.403)">
    <g id="组_1903" data-name="组 1903" transform="translate(0 26.403)">
      <g id="组_1902" data-name="组 1902">
        <path id="路径_1756" data-name="路径 1756" d="M14.506,243.572a3.541,3.541,0,0,1-2.223-.829l-4.106-3.617a1.808,1.808,0,0,0-2.336-.113L0,243.308V246.1a1.356,1.356,0,0,0,1.278,1.43c.039,0,.077,0,.116,0H22.078a1.586,1.586,0,0,0,1.658-1.432v-7.308l-7.422,4.295A3.429,3.429,0,0,1,14.506,243.572Z" transform="translate(0 -223.336)" fill="#fff"/>
        <circle id="椭圆_97" data-name="椭圆 97" cx="1.658" cy="1.658" r="1.658" transform="translate(12.547 9.612)" fill="#fff"/>
        <path id="路径_1757" data-name="路径 1757" d="M80.038,29.348a1.394,1.394,0,0,0-1.017-.565L58.489,26.409a1.5,1.5,0,0,0-1.7,1.281l-.339,2.938H74.462a3.24,3.24,0,0,1,3.165,3.127v13.3c0-.075.339-.151.49-.3a1.281,1.281,0,0,0,.49-1.017L80.377,30.44A1.469,1.469,0,0,0,80.038,29.348Z" transform="translate(-52.384 -26.403)" fill="#fff"/>
        <path id="路径_1758" data-name="路径 1758" d="M22.106,105.9H1.424a1.521,1.521,0,0,0-1.394,1.62v10.737L5,114.639a3.315,3.315,0,0,1,4.182.188l4.144,3.617a1.921,1.921,0,0,0,2.223.188l8.213-4.784v-6.329A1.733,1.733,0,0,0,22.106,105.9Zm-7.874,8.7a3.165,3.165,0,1,1,3.165-3.165A3.165,3.165,0,0,1,14.232,114.6Z" transform="translate(-0.028 -100.167)" fill="#fff"/>
      </g>
    </g>
  </g>
</svg>
