<svg xmlns="http://www.w3.org/2000/svg" width="33" height="33" viewBox="0 0 33 33">
  <g id="user-avatar" transform="translate(-2.25 -2.25)">
    <path id="路径_459" data-name="路径 459" d="M18.75,2.25a16.5,16.5,0,1,0,16.5,16.5A16.5,16.5,0,0,0,18.75,2.25ZM11.679,30.983V28.626a3.8,3.8,0,0,1,3.536-3.983h7.071a3.8,3.8,0,0,1,3.536,4V31a14.049,14.049,0,0,1-14.143,0Zm16.5-1.721v-.719a6.14,6.14,0,0,0-5.893-6.257H15.214a6.129,6.129,0,0,0-5.893,6.258v.7a14.143,14.143,0,1,1,18.857,0Z" transform="translate(0 0)"/>
    <path id="路径_460" data-name="路径 460" d="M18,7.875A5.625,5.625,0,1,0,23.625,13.5,5.625,5.625,0,0,0,18,7.875Zm0,9A3.375,3.375,0,1,1,21.375,13.5,3.375,3.375,0,0,1,18,16.875Z" transform="translate(0.75 0.417)"/>
  </g>
</svg>
