<svg xmlns="http://www.w3.org/2000/svg" width="28" height="28" viewBox="0 0 28 28">
  <g id="_392496_gear_setting_settings_tools_icon" data-name="392496_gear_setting_settings_tools_icon" transform="translate(-2 -2)">
    <path id="路径_859" data-name="路径 859" d="M30,16a4.007,4.007,0,0,0-3.307-3.94l-.347-.835A4.006,4.006,0,0,0,25.9,6.1a4.092,4.092,0,0,0-5.125-.448l-.835-.346a4,4,0,0,0-7.879,0l-.835.346a4,4,0,0,0-6.3,3.277,3.966,3.966,0,0,0,.724,2.3l-.346.834A4.006,4.006,0,0,0,2,16H2a4.007,4.007,0,0,0,3.307,3.94l.346.834A4.007,4.007,0,0,0,6.1,25.9a4.093,4.093,0,0,0,5.125.448l.835.346a4,4,0,0,0,7.879,0l.835-.347a4,4,0,0,0,5.573-5.572l.346-.834A4,4,0,0,0,30,16Zm-4,2a1,1,0,0,0-.924.617l-.808,1.948a1,1,0,0,0,.217,1.09,2,2,0,1,1-2.829,2.829,1,1,0,0,0-1.09-.217l-1.949.808A1,1,0,0,0,18,26a2,2,0,1,1-4,0,1,1,0,0,0-.617-.924l-1.95-.808a1,1,0,0,0-1.09.217,2.047,2.047,0,0,1-2.828,0,2,2,0,0,1,0-2.829,1,1,0,0,0,.217-1.09l-.808-1.948A1,1,0,0,0,6,18a2,2,0,0,1-2-2H4a2,2,0,0,1,2-2,1,1,0,0,0,.924-.617l.808-1.95a1,1,0,0,0-.217-1.09,2,2,0,0,1,2.829-2.829,1,1,0,0,0,1.09.217l1.949-.808A1,1,0,0,0,14,6a2,2,0,0,1,4,0,1,1,0,0,0,.617.924l1.95.808a1,1,0,0,0,1.09-.217,2.047,2.047,0,0,1,2.828,0,2,2,0,0,1,0,2.829,1,1,0,0,0-.217,1.09l.808,1.95A1,1,0,0,0,26,14a2,2,0,0,1,2,2h0A2,2,0,0,1,26,18Z" fill="#7f8299"/>
    <path id="路径_860" data-name="路径 860" d="M16,11a5,5,0,0,0,0,10,1,1,0,0,0,0-2,3,3,0,1,1,2.519-1.368A1,1,0,1,0,20.2,18.72,5,5,0,0,0,16,11Z" fill="#d9dae1"/>
  </g>
</svg>
